<svg xmlns="http://www.w3.org/2000/svg" xmlns:xlink="http://www.w3.org/1999/xlink" id="Capa_1" x="0px" y="0px" viewBox="0 0 125 20" style="enable-background:new 0 0 125 20;" xml:space="preserve"><style type="text/css">	.st0{fill-rule:evenodd;clip-rule:evenodd;fill:#5B5B5B;}	.st1{fill-rule:evenodd;clip-rule:evenodd;fill:#80BC00;}	.st2{fill:#5B5B5B;}</style><g>	<g>		<polygon class="st0" points="3.9,11 3.9,18.4 2.2,18.4 2.2,11 2.2,9.4 3.9,9.4 13.2,9.4 14.9,9.4 14.9,11 14.9,18.4 13.2,18.4    13.2,11   "></polygon>	</g>	<g>		<path class="st1" d="M8.5,1.5c3.5,0,6.3,2.8,6.3,6.3v0.7h-1.6V7.8c0-2.6-2.1-4.7-4.7-4.7C6,3.1,3.9,5.2,3.9,7.8v0.7H2.2V7.8   C2.2,4.3,5,1.5,8.5,1.5"></path>	</g>	<g>		<path class="st1" d="M49.8,1.5c3.5,0,6.3,2.8,6.3,6.3v10.6h-1.6V7.8c0-2.6-2.1-4.7-4.7-4.7c-2.6,0-4.7,2.1-4.7,4.7v10.6h-1.6V7.8   c0-2.6-2.1-4.7-4.7-4.7c-2.6,0-4.7,2.1-4.7,4.7v10.6h-1.6V7.8c0-3.5,2.8-6.3,6.3-6.3c2.4,0,4.4,1.3,5.5,3.2   C45.4,2.8,47.5,1.5,49.8,1.5"></path>	</g>	<g>		<path class="st2" d="M9.8,13.7c0-0.7-0.6-1.3-1.3-1.3c-0.7,0-1.3,0.6-1.3,1.3c0,0.4,0.2,0.8,0.6,1l-0.4,2.4l2.2,0l-0.4-2.4   C9.6,14.5,9.8,14.1,9.8,13.7"></path>	</g>	<g>		<path class="st1" d="M19,3.6v5.8h6.4h0c1.6,0,2.9-1.3,2.9-2.9c0-1.6-1.3-2.9-2.9-2.9h0h0l0,0H19z M17.4,1.9H19h6.5h0   C28,1.9,30,4,30,6.5c0,1.5-0.8,2.9-1.9,3.7C29.2,11,30,12.4,30,14v4.4h-1.6V14c0-1.6-1.3-2.9-2.9-2.9h0h0H19v7.3h-1.6V11V9.4V3.6   V1.9z"></path>	</g>	<g>		<g>			<g>				<g>					<path class="st2" d="M63.2,16.2c0.6,0.4,1.5,0.7,2.3,0.7c1.7,0,2.7-1.1,2.7-2.8c0-1.5-0.9-2.4-2.2-3.4C64.8,9.8,63,8.3,63,6.2      c0-2.5,1.7-4.3,4.3-4.3c1,0,1.9,0.3,2.3,0.6l-0.5,1.6c-0.4-0.3-1.1-0.6-1.9-0.6c-1.6,0-2.3,1.2-2.3,2.3c0,1.6,0.8,2.3,2.4,3.4      c2,1.4,2.8,2.9,2.8,4.7c0,2.8-2,4.6-4.6,4.6c-1.1,0-2.3-0.4-2.8-0.7L63.2,16.2z"></path>					<path class="st2" d="M73.7,12.8c0,3.5,1.4,4.3,2.7,4.3c0.8,0,1.4-0.2,1.9-0.5l0.3,1.3c-0.6,0.4-1.6,0.5-2.5,0.5      c-2.7,0-4.2-2.2-4.2-5.8c0-3.7,1.6-6,3.9-6c2.3,0,3.3,2.5,3.3,5.1c0,0.4,0,0.7,0,1H73.7z M77.3,11.5c0-2.3-0.8-3.3-1.7-3.3      c-1.2,0-1.8,1.8-1.9,3.3H77.3z"></path>					<path class="st2" d="M81.3,9.9c0-1-0.1-2.1-0.1-3h1.6l0.1,1.8h0c0.4-1.1,1.3-2,2.4-2c0.1,0,0.3,0,0.4,0v1.9c-0.1,0-0.2,0-0.4,0      c-1.2,0-2,1.1-2.2,2.4c0,0.3-0.1,0.7-0.1,1v6.3h-1.8V9.9z"></path>					<path class="st2" d="M89.5,6.9l1.4,6.4c0.2,0.8,0.4,1.8,0.5,2.8h0.1c0.1-0.9,0.3-1.9,0.5-2.8l1.4-6.4h1.8l-3,11.5h-1.6l-3-11.5      H89.5z"></path>					<path class="st2" d="M99,3.9c0,0.7-0.4,1.2-1.1,1.2c-0.6,0-1-0.5-1-1.2c0-0.7,0.5-1.2,1.1-1.2C98.6,2.8,99,3.2,99,3.9z       M97,18.4V6.9h1.8v11.5H97z"></path>					<path class="st2" d="M107.3,18.1c-0.4,0.2-1.1,0.4-1.9,0.4c-2.5,0-4.2-2-4.2-5.8c0-3.3,1.7-6,4.5-6c0.6,0,1.3,0.2,1.6,0.4      l-0.4,1.5c-0.2-0.1-0.7-0.3-1.3-0.3c-1.8,0-2.7,2.2-2.7,4.4c0,2.7,1,4.3,2.7,4.3c0.5,0,0.9-0.1,1.3-0.3L107.3,18.1z"></path>					<path class="st2" d="M110.2,12.8c0,3.5,1.4,4.3,2.7,4.3c0.8,0,1.4-0.2,1.9-0.5l0.3,1.3c-0.6,0.4-1.6,0.5-2.5,0.5      c-2.7,0-4.2-2.2-4.2-5.8c0-3.7,1.6-6,3.9-6c2.3,0,3.3,2.5,3.3,5.1c0,0.4,0,0.7,0,1H110.2z M113.8,11.5c0-2.3-0.8-3.3-1.7-3.3      c-1.2,0-1.8,1.8-1.9,3.3H113.8z"></path>					<path class="st2" d="M117.5,16.5c0.4,0.3,1.1,0.6,1.8,0.6c1,0,1.7-0.6,1.7-1.7c0-0.9-0.3-1.5-1.5-2.2c-1.5-1-2.3-1.9-2.3-3.3      c0-1.8,1.4-3.2,3.1-3.2c0.9,0,1.6,0.3,2.1,0.6L122,8.7c-0.4-0.3-0.9-0.5-1.5-0.5c-1,0-1.5,0.7-1.5,1.4c0,0.8,0.3,1.2,1.4,2      c1.3,0.9,2.4,1.9,2.4,3.5c0,2.3-1.6,3.4-3.4,3.4c-0.9,0-1.8-0.3-2.3-0.7L117.5,16.5z"></path>				</g>			</g>		</g>	</g></g></svg>